# Blender v2.79 (sub 0) OBJ File: 'test_mesure_003.blend'
# www.blender.org
mtllib decor_001.mtl
o decor_001_Plane
v -1.525000 0.000000 1.936500
v 1.525000 0.000000 1.936500
v -1.525000 0.000000 -1.936500
v 1.525000 0.000000 -1.936500
v -1.525000 0.148000 -1.936500
v -1.525000 -0.000000 -1.881500
v -1.525000 0.148000 -1.881500
v 1.525001 0.148000 -1.936499
v 1.525001 -0.000000 -1.881499
v 1.525001 0.148000 -1.881499
v -1.525000 0.148000 1.936500
v -1.470000 -0.000000 1.936500
v -1.470000 0.148000 1.936500
v -1.525000 0.148000 -1.936500
v -1.470000 -0.000000 -1.936500
v -1.470000 0.148000 -1.936500
v -1.524999 2.499999 -1.936500
v -1.524999 -0.000001 -1.936500
v 1.525000 2.499999 -1.936500
v 1.525001 -0.000001 -1.936500
v -1.525000 2.499999 1.936500
v -1.525000 -0.000001 1.936500
v -1.525000 2.499999 -1.936500
v -1.525000 -0.000001 -1.936500
v -1.524999 0.148003 -1.804502
v -1.524999 2.499997 -1.804502
v -1.524999 0.148003 -1.936502
v -1.524999 2.499997 -1.936502
v -1.469999 0.148003 -1.804502
v -1.469999 2.499997 -1.804502
v -1.469999 0.148003 -1.936502
v -1.469999 2.499997 -1.936502
vn 0.0000 1.0000 0.0000
vn -0.0000 0.0000 1.0000
vn 1.0000 0.0000 0.0000
vn -1.0000 0.0000 0.0000
vn 0.0000 0.0000 -1.0000
vn 0.0000 -1.0000 0.0000
usemtl None
s off
f 1//1 2//1 4//1 3//1
f 5//1 7//1 10//1 8//1
f 7//2 6//2 9//2 10//2
f 11//1 13//1 16//1 14//1
f 13//3 12//3 15//3 16//3
f 17//2 18//2 20//2 19//2
f 21//3 22//3 24//3 23//3
f 25//4 26//4 28//4 27//4
f 27//5 28//5 32//5 31//5
f 31//3 32//3 30//3 29//3
f 29//2 30//2 26//2 25//2
f 27//6 31//6 29//6 25//6
f 32//1 28//1 26//1 30//1
